<?xml version="1.0" encoding="UTF-8"?>
<svg width="100mm" height="100mm" fill="#212125" version="1.1" viewBox="0 0 100 100" xmlns="http://www.w3.org/2000/svg">
 <g transform="translate(-40 -87)">
  <rect x="40" y="87" width="100" height="100" fill="#212125"/>
  <g transform="matrix(2.3058 0 0 2.3058 -399.93 -864.08)" fill="#fff" aria-label="J">
   <path d="m221.04 443.68q-2.2 0-4.32-1.04t-3.48-3.32l2.08-2.04q1.12 1.8 2.6 2.64 1.52 0.84 3.04 0.84 2.84 0 4.12-1.48 1.32-1.52 1.32-4.76v-14.8h-11v-2.8h14.32v17.88q0 1.84-0.44 3.48-0.44 1.6-1.48 2.8-1 1.2-2.68 1.92-1.64 0.68-4.08 0.68z" fill="#fff"/>
  </g>
 </g>
</svg>
